<svg width="6" height="7" viewBox="0 0 6 7" fill="none" xmlns="http://www.w3.org/2000/svg">
<path d="M3.54041 5.60374C3.49936 4.98555 3.91207 4.49092 4.4082 4.44976C4.90434 4.40861 5.37784 4.82971 5.41888 5.4479C5.45992 6.06609 5.04722 6.56071 4.55109 6.60187C4.05495 6.64303 3.58145 6.22193 3.54041 5.60374Z" fill="white" stroke="#3E3E3E" stroke-width="0.45"/>
<path d="M1.90094 3.79688C1.8705 3.33831 2.17604 2.98268 2.52938 2.95336C2.88272 2.92405 3.23188 3.22537 3.26232 3.68394C3.29277 4.1425 2.98723 4.49813 2.63389 4.52745C2.28054 4.55676 1.93139 4.25544 1.90094 3.79688Z" fill="white" stroke="#3E3E3E" stroke-width="0.45"/>
<path d="M3.51531 1.30907C3.47957 0.770694 3.83869 0.345566 4.26342 0.310329C4.68816 0.275093 5.09949 0.636305 5.13524 1.17468C5.17098 1.71306 4.81186 2.13819 4.38712 2.17343C3.96238 2.20866 3.55105 1.84745 3.51531 1.30907Z" fill="white" stroke="#3E3E3E" stroke-width="0.45"/>
<path d="M0.281819 5.18922C0.256672 4.81046 0.508627 4.52433 0.790574 4.50094C1.07252 4.47755 1.3595 4.71897 1.38465 5.09773C1.4098 5.47649 1.15784 5.76262 0.875893 5.78601C0.593946 5.8094 0.306965 5.56798 0.281819 5.18922Z" fill="white" stroke="#3E3E3E" stroke-width="0.45"/>
<path d="M3.66998 4.75037L3.12745 4.13113" stroke="#3E3E3E" stroke-width="0.45"/>
<path d="M2.97617 3.172L3.90057 1.83756" stroke="#3E3E3E" stroke-width="0.45"/>
<line y1="-0.225" x2="1.14912" y2="-0.225" transform="matrix(-0.761996 0.647581 -0.56238 -0.826879 1.98712 3.72253)" stroke="#3E3E3E" stroke-width="0.45"/>
</svg>
